<?xml version="1.0" standalone="no"?>
<!DOCTYPE svg PUBLIC "-//W3C//DTD SVG 20010904//EN"
 "http://www.w3.org/TR/2001/REC-SVG-20010904/DTD/svg10.dtd">
<svg version="1.0" xmlns="http://www.w3.org/2000/svg"
 width="1024.000000pt" height="1024.000000pt" viewBox="0 0 1024.000000 1024.000000"
 preserveAspectRatio="xMidYMid meet">

<g transform="translate(0.000000,1024.000000) scale(0.100000,-0.100000)"
fill="#00a3e4" stroke="none">
<path d="M6213 8547 c95 -161 165 -346 208 -547 33 -150 33 -443 1 -611 -38
-202 -118 -398 -227 -555 -69 -99 -173 -206 -194 -200 -9 3 -162 46 -341 96
-179 51 -352 100 -385 110 l-60 17 121 -5 c254 -10 444 49 648 203 64 48 178
165 161 165 -3 0 -33 -14 -66 -30 -85 -44 -220 -87 -329 -106 -120 -21 -375
-23 -559 -4 -134 14 -154 28 -41 29 30 1 98 8 150 16 192 31 331 82 470 173
117 75 178 129 252 223 56 71 138 209 138 232 0 5 -33 -22 -74 -60 -140 -131
-298 -224 -476 -281 -165 -53 -228 -62 -680 -102 -400 -36 -676 -149 -923
-381 l-58 -54 65 -44 c109 -73 168 -68 325 27 46 29 109 61 140 73 83 31 226
59 306 59 l70 -1 -85 -32 c-110 -42 -216 -111 -271 -177 -131 -158 -165 -182
-274 -200 -108 -18 -217 17 -333 104 l-62 48 -48 -35 c-80 -59 -160 -151 -195
-224 -29 -62 -32 -76 -32 -168 0 -91 3 -106 31 -165 38 -79 80 -133 142 -182
64 -51 74 -49 55 10 -47 153 53 266 305 346 318 100 619 62 770 -98 133 -140
158 -327 69 -501 -44 -85 -168 -205 -300 -290 -391 -254 -452 -298 -575 -425
-138 -142 -235 -290 -306 -467 -58 -144 -69 -220 -69 -438 0 -172 2 -199 25
-285 14 -52 40 -127 57 -165 35 -76 101 -185 114 -185 4 0 7 33 7 73 0 419
275 838 685 1041 148 74 227 102 542 191 494 141 795 249 1088 393 506 249
997 631 1351 1054 322 382 513 750 599 1148 47 213 46 516 -1 705 -28 111 -57
205 -64 205 -4 0 -10 -28 -13 -62 -8 -89 -59 -282 -108 -412 -123 -329 -258
-569 -493 -884 -154 -205 -251 -318 -420 -490 -469 -478 -1087 -894 -1738
-1171 -92 -39 -170 -71 -175 -71 -4 0 42 27 102 59 465 246 876 574 1180 941
220 266 375 580 442 899 23 109 27 151 27 306 1 152 -3 197 -22 289 -80 372
-284 664 -616 880 l-59 38 26 -45z"/>
<path d="M4940 8314 c-638 -61 -1185 -267 -1606 -606 -271 -219 -478 -450
-658 -733 -85 -134 -207 -382 -266 -540 -63 -168 -133 -440 -156 -602 -22
-158 -30 -585 -15 -735 38 -362 115 -624 286 -973 138 -281 308 -526 533 -766
149 -159 393 -355 570 -461 127 -75 511 -262 520 -254 2 2 -12 26 -31 53 -87
122 -169 301 -202 440 l-17 71 -98 61 c-274 171 -547 438 -737 721 -368 551
-504 1249 -372 1920 126 637 529 1239 1069 1595 319 210 697 347 1110 401 159
20 549 15 679 -10 47 -8 85 -15 86 -13 1 1 42 61 90 132 48 72 103 150 123
173 25 31 31 46 23 51 -18 11 -221 49 -326 61 -96 11 -529 21 -605 14z"/>
<path d="M8386 6845 c-56 -146 -74 -191 -107 -257 -228 -456 -643 -927 -1149
-1303 -515 -382 -1092 -644 -1895 -858 -93 -25 -268 -72 -387 -104 -120 -32
-218 -61 -218 -64 0 -11 124 -88 206 -128 115 -56 301 -117 439 -143 103 -19
154 -22 360 -22 205 -1 258 3 365 22 614 110 1151 385 1602 820 243 234 432
495 578 795 126 259 177 424 215 702 25 179 17 610 -9 540z"/>
<path d="M8135 4442 c-196 -191 -365 -314 -610 -443 -332 -175 -690 -285
-1110 -344 -148 -21 -445 -39 -522 -31 -35 3 -63 3 -63 1 0 -18 255 -148 367
-186 181 -63 275 -80 465 -86 263 -8 443 20 674 107 435 163 781 550 920 1028
13 47 23 86 22 88 -2 1 -66 -59 -143 -134z"/>
<path d="M4433 4073 c-150 -199 -212 -408 -200 -682 9 -222 61 -380 184 -566
106 -159 194 -240 344 -316 168 -84 324 -120 521 -120 77 0 162 4 190 7 l49 7
-83 31 c-186 70 -348 177 -509 336 -261 259 -410 549 -460 899 -14 99 -7 314
14 409 8 34 11 62 7 62 -3 0 -29 -30 -57 -67z"/>
<path d="M4792 3773 c40 -259 204 -551 434 -774 150 -144 313 -244 507 -308
394 -132 841 -70 1247 172 91 54 285 196 278 203 -2 1 -36 -9 -77 -22 -172
-56 -259 -68 -501 -68 -198 0 -238 2 -330 22 -393 86 -663 247 -927 554 -67
79 -89 98 -111 98 -38 1 -186 34 -262 60 -54 19 -106 42 -261 118 -3 1 -2 -23
3 -55z"/>
</g>
</svg>
